#!OML:ASF Y:\EmotionMaleHayes\Project 1\Capture day 1\Session 1\Male1.ASF
:FULLY-SPECIFIED
:DEGREES
433
root 10.1328 17.0174 2.50221 328.562 84.4288 333.3
lowerback 2.01113 1.8079 2.48757
upperback 5.05548 2.47804 1.07201
thorax 4.14081 1.35684 -0.239882
lowerneck -22.4558 3.05245 6.04807
upperneck 24.6595 3.42173 -3.72374
head 12.0144 1.68164 -1.8212
rclavicle -2.1506e-014 -5.96354e-016
rhumerus -20.9182 43.2019 -88.2443
rradius 100.34
rwrist -23.719
rhand -4.28281 -35.6238
rfingers 7.12502
rthumb 21.4824 -64.4526
lclavicle -2.1506e-014 -5.96354e-016
lhumerus -39.2903 -52.5019 112.84
lradius 90.6759
lwrist 19.5577
lhand -10.4964 -37.3903
lfingers 7.12502
lthumb 15.5056 -7.99202
rfemur 12.5862 -7.12929 16.1434
rtibia 4.42662
rfoot -13.8413 1.95506
rtoes 0.33096
lfemur 2.41439 1.58669 -9.09529
ltibia 25.1383
lfoot -18.5696 8.65613
ltoes -10.9971
434
root 10.1554 17.0179 2.46409 333.878 84.3147 338.607
lowerback 1.9073 1.93478 2.18945
upperback 5.06942 2.64896 0.898937
thorax 4.21199 1.43369 -0.244318
lowerneck -22.3248 3.00408 6.09248
upperneck 24.2262 3.34994 -3.82628
head 11.8196 1.63453 -1.87714
rclavicle 1.86112e-014 1.68967e-015
rhumerus -22.7893 41.6168 -89.2499
rradius 100.71
rwrist -23.2769
rhand -5.5949 -35.568
rfingers 7.12502
rthumb 20.2217 -64.5354
lclavicle 1.86112e-014 1.68967e-015
lhumerus -40.3065 -51.4955 112.756
lradius 91.316
lwrist 21.3768
lhand -10.4964 -37.3903
lfingers 7.12502
lthumb 15.5056 -7.99202
rfemur 12.5785 -6.73056 15.4855
rtibia 4.35144
rfoot -13.8009 1.97152
rtoes 0.313735
lfemur 3.09274 1.64957 -9.74369
ltibia 24.0585
lfoot -18.6506 9.08099
ltoes -11.97
435
root 10.1321 17.0221 2.44929 329.319 84.3347 333.906
lowerback 2.36744 1.84783 2.39404
upperback 4.8504 2.54372 0.996001
thorax 3.7262 1.38099 -0.284746
lowerneck -22.1203 2.96101 6.08453
upperneck 23.8646 3.28586 -3.82567
head 11.6372 1.60229 -1.88468
rclavicle -1.9338e-014 -6.36111e-015
rhumerus -24.7714 40.1347 -90.2908
rradius 101.207
rwrist -23.1295
rhand -6.68131 -35.5221
rfingers 7.12502
rthumb 19.1773 -64.5966
lclavicle -1.9338e-014 -6.36111e-015
lhumerus -41.3566 -50.4563 112.635
lradius 92.0323
lwrist 23.9655
lhand -9.94878 -15.9746
lfingers 7.12502
lthumb 16.033 13.382
rfemur 12.4419 -5.99767 16.3781
rtibia 4.07616
rfoot -13.851 0.954556
rtoes 0.234004
lfemur 3.12199 1.83564 -9.10079
ltibia 23.4624
lfoot -18.5301 8.76772
ltoes -12.9929
436
root 10.125 17.0254 2.41996 327.328 84.2138 331.71
lowerback 2.57783 1.76683 2.57148
upperback 4.67993 2.44076 1.05584
thorax 3.43302 1.32955 -0.335823
lowerneck -22.0299 2.87796 5.85911
upperneck 23.5327 3.2003 -3.70534
head 11.4816 1.55437 -1.81463
rclavicle 1.38839e-014 -2.93207e-015
rhumerus -26.2557 39.3793 -91.0597
rradius 101.677
rwrist -23.2734
rhand -8.12797 -35.7267
rfingers 7.12502
rthumb 17.7857 -64.9333
lclavicle 1.38839e-014 -2.93207e-015
lhumerus -42.1574 -49.2391 112.358
lradius 92.7696
lwrist 27.1147
lhand -12.2617 -15.6652
lfingers 7.12502
lthumb 13.8048 13.8567
rfemur 12.2023 -5.64676 16.7758
rtibia 4.00508
rfoot -13.8728 0.554658
rtoes 0.621405
lfemur 3.33171 2.01583 -8.79664
ltibia 22.638
lfoot -18.6116 8.79448
ltoes -14.471
437
root 10.1294 17.0259 2.38266 328.445 84.2942 332.684
lowerback 2.65902 1.67754 2.47507
upperback 4.63901 2.32466 0.991214
thorax 3.34016 1.26779 -0.35344
lowerneck -22.191 2.88219 5.68073
upperneck 23.2392 3.20602 -3.59223
head 11.3959 1.54736 -1.73949
rclavicle -2.23012e-015 -8.94531e-016
rhumerus -27.3525 38.8135 -91.7185
rradius 102.09
rwrist -23.2612
rhand -8.69535 -37.0399
rfingers 7.12502
rthumb 17.2397 -66.2952
lclavicle -2.23012e-015 -8.94531e-016
lhumerus -42.4872 -47.7312 111.538
lradius 93.5023
lwrist 28.7414
lhand -12.8327 -14.9824
lfingers 7.12502
lthumb 13.2544 14.5762
rfemur 12.0299 -5.62821 16.5144
rtibia 4.07456
rfoot -13.9364 0.565276
rtoes 1.47415
lfemur 3.70171 2.20157 -9.04163
ltibia 21.7408
lfoot -18.7081 8.94279
ltoes -16.3405
438
root 10.1411 17.0266 2.34685 330.021 84.3716 334.119
lowerback 2.54015 1.64531 2.36486
upperback 4.67977 2.27858 0.894715
thorax 3.44754 1.2438 -0.386313
lowerneck -22.3896 2.93573 5.74986
upperneck 22.9526 3.25464 -3.70092
head 11.3315 1.55316 -1.78056
rclavicle -3.38555e-015 1.44119e-015
rhumerus -28.3155 38.0642 -92.2352
rradius 102.475
rwrist -23.1408
rhand -9.39509 -37.0761
rfingers 7.12502
rthumb 16.5661 -66.389
lclavicle -3.38555e-015 1.44119e-015
lhumerus -43.0009 -46.5796 110.963
lradius 94.2972
lwrist 31.0735
lhand -13.33 -14.1088
lfingers 7.12502
lthumb 12.7751 15.4803
rfemur 11.9248 -5.59309 16.1821
rtibia 3.99838
rfoot -13.8826 0.678981
rtoes 2.37439
lfemur 4.1016 2.30694 -9.34195
ltibia 20.8407
lfoot -18.5475 8.9497
ltoes -17.2076
439
root 10.1492 17.0296 2.31302 333.301 84.2874 337.226
lowerback 2.37793 1.6829 2.10332
upperback 4.69729 2.32358 0.808489
thorax 3.55064 1.25892 -0.322726
lowerneck -22.3442 2.95556 5.93412
upperneck 22.5203 3.28064 -4.00683
head 11.1711 1.5359 -1.91714
rclavicle -1.09953e-015 4.72114e-015
rhumerus -29.3067 37.3471 -92.7714
rradius 102.786
rwrist -23.1644
rhand -10.2258 -37.1593
rfingers 7.12502
rthumb 15.7662 -66.5372
lclavicle -1.09953e-015 4.72114e-015
lhumerus -43.6604 -45.5009 110.615
lradius 95.1336
lwrist 33.8792
lhand -13.549 -13.2077
lfingers 7.12502
lthumb 12.5639 16.3945
rfemur 11.7182 -5.52544 15.7642
rtibia 3.91909
rfoot -13.6803 0.796688
rtoes 2.10352
lfemur 4.49469 2.52599 -9.68506
ltibia 19.9175
lfoot -18.2733 8.88539
ltoes -17.1635
440
root 10.149 17.0343 2.27608 337.394 83.9976 341.121
lowerback 2.41185 1.73391 1.82933
upperback 4.63251 2.39174 0.732312
thorax 3.45697 1.28262 -0.25066
lowerneck -22.324 3.05582 6.00632
upperneck 22.13 3.42755 -4.19871
head 11.0352 1.57885 -1.973
rclavicle 1.70893e-014 -9.44227e-016
rhumerus -30.4551 36.7095 -93.4785
rradius 103.099
rwrist -23.1224
rhand -10.606 -37.1255
rfingers 7.12502
rthumb 15.4 -66.5319
lclavicle 1.70893e-014 -9.44227e-016
lhumerus -44.4041 -44.1102 110.302
lradius 96.0109
lwrist 36.4155
lhand -13.4179 -12.5911
lfingers 7.12502
lthumb 12.6903 17.0034
rfemur 11.2931 -5.28794 15.3882
rtibia 4.04519
rfoot -13.4978 0.868937
rtoes 1.36639
lfemur 4.78613 2.93052 -10.0128
ltibia 19.0914
lfoot -18.1103 8.86156
ltoes -16.9559
441
root 10.1535 17.0394 2.23835 339.678 83.7695 343.239
lowerback 2.48343 1.76995 1.73625
upperback 4.58054 2.44135 0.675083
thorax 3.36203 1.3037 -0.26118
lowerneck -22.4257 3.11503 5.81043
upperneck 21.8261 3.52834 -4.10565
head 10.9413 1.61374 -1.88752
rclavicle -1.27657e-014 1.54058e-015
rhumerus -31.5914 36.1598 -94.1602
rradius 103.417
rwrist -22.7316
rhand -10.7036 -37.6902
rfingers 7.12502
rthumb 15.306 -67.1038
lclavicle -1.27657e-014 1.54058e-015
lhumerus -45.2428 -42.4164 110.032
lradius 97.0063
lwrist 38.4192
lhand -13.0506 -12.1464
lfingers 7.12502
lthumb 13.0444 17.4257
rfemur 10.9417 -4.709 15.2603
rtibia 4.25243
rfoot -13.6597 0.704679
rtoes 2.35883
lfemur 4.99005 3.12973 -10.235
ltibia 18.4004
lfoot -17.9423 8.89105
ltoes -16.6321
442
root 10.1763 17.0502 2.20327 341.775 83.8996 345.248
lowerback 2.24751 1.7382 1.53537
upperback 4.67972 2.39629 0.57465
thorax 3.59279 1.2782 -0.241677
lowerneck -22.5498 3.08075 5.53183
upperneck 21.4289 3.49891 -3.93069
head 10.8066 1.59207 -1.77931
rclavicle -2.35715e-014 1.36664e-014
rhumerus -32.5689 35.7359 -94.8089
rradius 103.732
rwrist -22.5187
rhand -12.3379 -37.0667
rfingers 7.12502
rthumb 13.7314 -66.5936
lclavicle -2.35715e-014 1.36664e-014
lhumerus -45.7367 -41.6799 109.718
lradius 97.5604
lwrist 40.4012
lhand -13.3066 -12.1092
lfingers 7.12502
lthumb 12.7976 17.4786
rfemur 11.0107 -4.13384 14.9891
rtibia 4.11385
rfoot -13.8769 0.151467
rtoes 2.94673
lfemur 5.28803 2.90656 -10.679
ltibia 17.6571
lfoot -17.7281 9.0228
ltoes -16.2957
443
root 10.2017 17.0678 2.15806 349.789 83.7109 353.263
lowerback 2.01256 1.81445 0.875989
upperback 4.81445 2.50438 0.296294
thorax 3.85067 1.31593 -0.146842
lowerneck -22.6576 3.10026 5.41151
upperneck 21.073 3.53822 -3.92033
head 10.6949 1.59562 -1.74687
rclavicle -2.03226e-014 -2.88238e-015
rhumerus -33.5651 35.4808 -95.5602
rradius 104.052
rwrist -22.6722
rhand -13.1658 -36.6141
rfingers 7.12502
rthumb 12.9334 -66.1933
lclavicle -2.03226e-014 -2.88238e-015
lhumerus -46.258 -40.8787 109.435
lradius 98.0716
lwrist 41.7839
lhand -13.4441 -12.1752
lfingers 7.12502
lthumb 12.6651 17.4207
rfemur 10.9811 -3.95081 13.7858
rtibia 4.04067
rfoot -13.6823 0.188563
rtoes 1.53315
lfemur 5.79871 2.77006 -11.9622
ltibia 16.8065
lfoot -17.6006 9.53769
ltoes -15.8945
444
root 10.1709 17.0733 2.1473 356.376 84.4789 359.684
lowerback 2.37763 1.54973 -0.272021
upperback 4.71301 2.15606 0.190035
thorax 3.49687 1.10324 0.36528
lowerneck -22.7316 3.15538 5.42815
upperneck 20.7751 3.6333 -4.092
head 10.6083 1.61481 -1.79461
rclavicle 3.35449e-015 -8.19987e-016
rhumerus -34.6149 35.3641 -96.3588
rradius 104.339
rwrist -22.6517
rhand -13.2799 -36.2692
rfingers 7.12502
rthumb 12.8234 -65.8554
lclavicle 3.35449e-015 -8.19987e-016
lhumerus -46.8045 -40.0355 109.17
lradius 98.8212
lwrist 43.1469
lhand -13.4322 -11.6995
lfingers 7.12502
lthumb 12.6766 17.8958
rfemur 10.9123 -3.55114 13.2661
rtibia 3.76554
rfoot -13.6521 -1.1051
rtoes 0.79232
lfemur 5.22445 2.7656 -12.8099
ltibia 16.9746
lfoot -17.2925 8.99372
ltoes -15.8614
445
root 10.238 17.1039 2.08892 357.985 83.279 361.495
lowerback 1.91253 1.87704 -0.0952156
upperback 4.98652 2.60307 0.097321
thorax 4.05344 1.33498 0.199445
lowerneck -22.8018 3.1814 5.35826
upperneck 20.445 3.71296 -4.2513
head 10.5068 1.62198 -1.82574
rclavicle -4.93856e-015 -1.3418e-015
rhumerus -35.5743 35.3639 -97.1624
rradius 104.537
rwrist -22.3792
rhand -13.0538 -36.1968
rfingers 7.12502
rthumb 13.0413 -65.7691
lclavicle -4.93856e-015 -1.3418e-015
lhumerus -47.2779 -39.3874 109.045
lradius 99.391
lwrist 44.2103
lhand -13.6947 -11.5849
lfingers 7.12502
lthumb 12.4235 18.0259
rfemur 10.8978 -2.68573 12.7947
rtibia 3.98584
rfoot -13.6204 -0.754029
rtoes 1.6217
lfemur 6.55441 2.46018 -13.5114
ltibia 15.5857
lfoot -17.3718 10.3223
ltoes -14.4949
446
root 10.1681 17.1018 2.10426 358.862 84.3877 362.11
lowerback 2.81994 1.51458 -0.992555
upperback 4.71163 2.10435 0.261688
thorax 3.2196 1.05443 0.82689
lowerneck -22.8797 3.18069 5.2437
upperneck 20.1224 3.75054 -4.33348
head 10.4051 1.61651 -1.82828
rclavicle 2.51711e-014 -4.37326e-015
rhumerus -36.5013 35.3469 -98.0107
rradius 104.682
rwrist -22.14
rhand -12.4182 -36.3505
rfingers 7.12502
rthumb 13.654 -65.8827
lclavicle 2.51711e-014 -4.37326e-015
lhumerus -47.6773 -38.817 108.87
lradius 99.7972
lwrist 44.5924
lhand -13.5907 -11.4163
lfingers 7.12502
lthumb 12.5237 18.1884
rfemur 10.7032 -1.76539 13.5622
rtibia 3.76515
rfoot -13.851 -2.91904
rtoes 2.54161
lfemur 5.54324 2.71938 -13.2112
ltibia 16.1685
lfoot -16.9973 9.07011
ltoes -14.6325
447
root 10.1589 17.1164 2.06668 366.842 84.191 369.864
lowerback 2.6843 1.51838 -1.80591
upperback 4.78867 2.11655 0.025586
thorax 3.35778 1.0369 1.04426
lowerneck -22.9518 3.22101 5.25739
upperneck 19.6081 3.81394 -4.50899
head 10.2396 1.62106 -1.88019
rclavicle -3.07495e-015 1.83876e-015
rhumerus -37.1031 35.3929 -98.6885
rradius 104.784
rwrist -21.9358
rhand -11.2502 -36.175
rfingers 7.12502
rthumb 14.7795 -65.628
lclavicle -3.07495e-015 1.83876e-015
lhumerus -47.846 -38.411 108.502
lradius 100.17
lwrist 44.3944
lhand -13.2978 -11.3507
lfingers 7.12502
lthumb 12.8061 18.2365
rfemur 10.2438 -1.79257 12.5186
rtibia 3.97808
rfoot -13.7083 -2.81552
rtoes 2.35767
lfemur 5.51649 2.9169 -14.343
ltibia 15.6344
lfoot -16.7984 9.08288
ltoes -14.4989
